<svg xmlns:xlink="http://www.w3.org/1999/xlink" xmlns="http://www.w3.org/2000/svg" viewBox="0 0 575 575" class="roots-wrapper" width="575"  height="575" ><g transform="rotate(0 0 0)"><svg viewBoxSize="575" data-root-id="6287107477718" xmlns="http://www.w3.org/2000/svg" xmlns:xlink="http://www.w3.org/1999/xlink" xmlnsSerif="http://www.serif.com/" viewBox="571.4522705078125 95.55661010742188 857.0931396484375 1808.885986328125" version="1.1" xml:space="preserve" height="439.8711183509348" width="208.421405943911" y="0" x="183.289" preserveAspectRatio="xMinYMin" zoom="1" editorType="buyer" data-layer-role="icon" style="fill-rule: evenodd; clip-rule: evenodd; stroke-linejoin: round; stroke-miterlimit: 2; position: absolute; height: 439.871px; width: 208.421px; top: 0px; left: 183.289px;"><path transform="matrix(1.58527,0,0,1.20018,-412.799,-430.101)" d="M624.227,438.894C623.719,438.079 622.879,437.773 622.127,438.129C621.374,438.485 620.873,439.427 620.873,440.482C620.873,543.975 620.873,1765.78 620.873,1865.77C620.873,1866.53 621.263,1867.19 621.821,1867.38C622.379,1867.57 622.963,1867.23 623.24,1866.57C641.109,1823.58 754.252,1551.39 760.082,1537.36C760.235,1536.99 760.315,1536.58 760.315,1536.16C760.315,1514.4 760.315,945.56 760.315,910.843C760.315,909.839 760.771,908.932 761.471,908.541C772.486,902.39 858.875,854.147 874.245,845.564C874.795,845.257 875.203,844.625 875.345,843.859C875.488,843.094 875.349,842.284 874.97,841.675C854.868,809.385 652.806,484.803 624.227,438.894Z" name="Layer %{number}" zoom="1" data-layer-id="3245578777718" style="fill-opacity: 1;" fill="#F5F5F5"></path><path transform="matrix(1.25839,0,0,1.06139,-420.646,-163.315)" d="M1016.14,1067.3C1016.14,1065.82 1017.11,1064.58 1018.36,1064.48C1026.33,1063.84 1034.22,1063.52 1042.02,1063.52C1101.41,1063.52 1157.03,1074.59 1208.87,1096.74C1260.7,1118.88 1305.9,1149.75 1344.45,1189.34C1383.01,1228.94 1413.49,1275.7 1435.89,1329.62C1458.29,1383.54 1469.49,1442.54 1469.49,1506.62C1469.49,1572.27 1458.29,1632.18 1435.89,1686.37C1413.49,1740.55 1383.01,1787.05 1344.45,1825.86C1305.9,1864.68 1260.7,1894.76 1208.87,1916.12C1157.03,1937.49 1101.41,1948.16 1042.02,1948.16C983.146,1948.16 927.791,1937.22 875.952,1915.34C861.784,1909.36 848.103,1902.74 834.908,1895.48C834.311,1895.14 833.855,1894.54 833.65,1893.79C833.444,1893.05 833.508,1892.24 833.826,1891.55C843.91,1869.78 913.161,1720.24 923.069,1698.84C923.378,1698.17 923.901,1697.68 924.52,1697.48C925.139,1697.28 925.801,1697.38 926.356,1697.76C936.752,1704.88 947.824,1711.12 959.571,1716.45C985.36,1728.18 1012.84,1734.04 1042.02,1734.04C1071.19,1734.04 1098.68,1728.18 1124.46,1716.45C1150.25,1704.73 1172.79,1688.71 1192.06,1668.39C1211.34,1648.07 1226.58,1624.11 1237.78,1596.5C1248.98,1568.88 1254.58,1538.93 1254.58,1506.62C1254.58,1474.32 1248.98,1444.24 1237.78,1416.36C1226.58,1388.49 1211.34,1364.39 1192.06,1344.08C1172.79,1323.76 1150.25,1307.87 1124.46,1296.4C1098.68,1284.94 1071.19,1279.21 1042.02,1279.21C1034.14,1279.21 1026.4,1279.68 1018.77,1280.61C1018.1,1280.69 1017.43,1280.43 1016.93,1279.9C1016.42,1279.36 1016.14,1278.6 1016.14,1277.8C1016.14,1253.03 1016.14,1090.05 1016.14,1067.3Z" name="Layer %{number}" zoom="1" data-layer-id="1158561577718" style="fill-rule: nonzero; fill-opacity: 1;" fill="#DE3A3A"></path></svg></g><g transform="rotate(0 0 0)"><svg viewBoxSize="575" data-root-id="1505062777718" xmlns="http://www.w3.org/2000/svg" y="522.68" viewBox="7.960000038146973 15.789999961853027 559.8499755859375 52.18000030517578" x="6.910003662109375" height="52.18000030517578" width="559.8499755859375" fontUrl="https://fonts.gstatic.com/s/lato/v24/S6uyw4BMUTPHvxk6XweuBCY.ttf" zoom="1" editorType="buyer" data-layer-role="brandName" style="position: absolute; top: 522.68px; width: 559.85px; height: 52.18px; left: 6.91px;"><g data-horizontal-grow="center" zoom="1" root="[object Object]" style="fill-opacity: 1;" fill="#F5F5F5"><path d="M30.46 67.62L7.96 67.62L7.96 18.72L29.06 18.72Q37.23 18.72 41.74 22.01Q46.25 25.29 46.25 31.30L46.25 31.30Q46.25 35.28 44.39 38.00Q42.54 40.73 39.37 42.12Q36.19 43.52 32.41 43.52L32.41 43.52L33.60 41.85Q38.28 41.85 41.67 43.28Q45.06 44.71 46.94 47.54Q48.83 50.37 48.83 54.56L48.83 54.56Q48.83 60.78 44.26 64.20Q39.68 67.62 30.46 67.62L30.46 67.62ZM13.13 22.98L13.13 63.36L30.39 63.36Q36.82 63.36 40.24 61.16Q43.66 58.96 43.66 54.14L43.66 54.14Q43.66 49.39 40.24 47.19Q36.82 44.99 30.39 44.99L30.39 44.99L12.57 44.99L12.57 40.73L28.71 40.73Q34.58 40.73 37.83 38.49Q41.08 36.26 41.08 31.86L41.08 31.86Q41.08 27.38 37.83 25.18Q34.58 22.98 28.71 22.98L28.71 22.98L13.13 22.98ZM92.63 67.97L92.63 67.97Q86.90 67.97 82.57 65.56Q78.24 63.15 75.80 58.93Q73.35 54.70 73.35 49.25L73.35 49.25Q73.35 43.80 75.69 39.61Q78.03 35.42 82.12 33.01Q86.21 30.60 91.30 30.60L91.30 30.60Q96.47 30.60 100.49 32.94Q104.51 35.28 106.81 39.50Q109.12 43.73 109.12 49.25L109.12 49.25Q109.12 49.60 109.08 49.98Q109.05 50.37 109.05 50.79L109.05 50.79L77.12 50.79L77.12 47.08L106.39 47.08L104.44 48.55Q104.44 44.57 102.73 41.46Q101.02 38.35 98.08 36.61Q95.15 34.86 91.30 34.86L91.30 34.86Q87.53 34.86 84.53 36.61Q81.52 38.35 79.85 41.50Q78.17 44.64 78.17 48.69L78.17 48.69L78.17 49.46Q78.17 53.65 80.02 56.83Q81.87 60.01 85.19 61.79Q88.51 63.57 92.77 63.57L92.77 63.57Q96.13 63.57 99.02 62.38Q101.92 61.20 104.02 58.75L104.02 58.75L106.81 61.96Q104.37 64.90 100.70 66.44Q97.03 67.97 92.63 67.97ZM164.45 67.62L159.70 67.62L159.70 59.52L159.49 58.19L159.49 44.64Q159.49 39.96 156.87 37.44Q154.25 34.93 149.08 34.93L149.08 34.93Q145.51 34.93 142.30 36.12Q139.09 37.30 136.85 39.26L136.85 39.26L134.62 35.56Q137.41 33.18 141.32 31.89Q145.24 30.60 149.57 30.60L149.57 30.60Q156.69 30.60 160.57 34.13Q164.45 37.65 164.45 44.85L164.45 44.85L164.45 67.62ZM147.05 67.97L147.05 67.97Q142.93 67.97 139.89 66.61Q136.85 65.25 135.25 62.84Q133.64 60.43 133.64 57.28L133.64 57.28Q133.64 54.42 135.00 52.08Q136.36 49.74 139.47 48.31Q142.58 46.87 147.82 46.87L147.82 46.87L160.46 46.87L160.46 50.58L147.96 50.58Q142.65 50.58 140.59 52.46Q138.53 54.35 138.53 57.14L138.53 57.14Q138.53 60.29 140.97 62.17Q143.42 64.06 147.82 64.06L147.82 64.06Q152.01 64.06 155.05 62.14Q158.09 60.22 159.49 56.59L159.49 56.59L160.60 60.01Q159.21 63.64 155.75 65.81Q152.29 67.97 147.05 67.97ZM206.99 67.97L206.99 67.97Q201.82 67.97 199.03 65.18Q196.23 62.38 196.23 57.28L196.23 57.28L196.23 22.84L201.19 22.84L201.19 57.00Q201.19 60.22 202.83 61.96Q204.48 63.71 207.55 63.71L207.55 63.71Q210.83 63.71 213.00 61.82L213.00 61.82L214.74 65.39Q213.28 66.71 211.22 67.34Q209.16 67.97 206.99 67.97ZM212.37 35.07L189.67 35.07L189.67 30.95L212.37 30.95L212.37 35.07ZM247.23 67.62L242.27 67.62L242.27 18.72L246.53 18.72L268.88 56.86L266.65 56.86L288.79 18.72L293.06 18.72L293.06 67.62L288.10 67.62L288.10 26.48L289.28 26.48L268.88 61.41L266.44 61.41L245.90 26.48L247.23 26.48L247.23 67.62ZM353.13 67.62L348.38 67.62L348.38 59.52L348.17 58.19L348.17 44.64Q348.17 39.96 345.55 37.44Q342.93 34.93 337.76 34.93L337.76 34.93Q334.20 34.93 330.99 36.12Q327.78 37.30 325.54 39.26L325.54 39.26L323.30 35.56Q326.10 33.18 330.01 31.89Q333.92 30.60 338.25 30.60L338.25 30.60Q345.38 30.60 349.26 34.13Q353.13 37.65 353.13 44.85L353.13 44.85L353.13 67.62ZM335.74 67.97L335.74 67.97Q331.62 67.97 328.58 66.61Q325.54 65.25 323.93 62.84Q322.33 60.43 322.33 57.28L322.33 57.28Q322.33 54.42 323.69 52.08Q325.05 49.74 328.16 48.31Q331.27 46.87 336.51 46.87L336.51 46.87L349.15 46.87L349.15 50.58L336.65 50.58Q331.34 50.58 329.28 52.46Q327.22 54.35 327.22 57.14L327.22 57.14Q327.22 60.29 329.66 62.17Q332.11 64.06 336.51 64.06L336.51 64.06Q340.70 64.06 343.74 62.14Q346.78 60.22 348.17 56.59L348.17 56.59L349.29 60.01Q347.89 63.64 344.44 65.81Q340.98 67.97 335.74 67.97ZM389.04 67.62L384.08 67.62L384.08 30.95L388.83 30.95L388.83 40.94L388.34 39.19Q389.88 35.00 393.51 32.80Q397.14 30.60 402.52 30.60L402.52 30.60L402.52 35.42Q402.24 35.42 401.96 35.38Q401.69 35.35 401.41 35.35L401.41 35.35Q395.61 35.35 392.32 38.88Q389.04 42.40 389.04 48.90L389.04 48.90L389.04 67.62ZM443.60 48.76L433.47 58.12L433.61 51.77L456.45 30.95L462.53 30.95L446.39 46.39L443.60 48.76ZM434.52 67.62L429.56 67.62L429.56 15.79L434.52 15.79L434.52 67.62ZM464.07 67.62L457.99 67.62L442.69 48.55L445.91 44.71L464.07 67.62ZM504.38 67.97L504.38 67.97Q498.65 67.97 494.32 65.56Q489.99 63.15 487.54 58.93Q485.10 54.70 485.10 49.25L485.10 49.25Q485.10 43.80 487.44 39.61Q489.78 35.42 493.86 33.01Q497.95 30.60 503.05 30.60L503.05 30.60Q508.22 30.60 512.24 32.94Q516.25 35.28 518.56 39.50Q520.86 43.73 520.86 49.25L520.86 49.25Q520.86 49.60 520.83 49.98Q520.79 50.37 520.79 50.79L520.79 50.79L488.87 50.79L488.87 47.08L518.14 47.08L516.18 48.55Q516.18 44.57 514.47 41.46Q512.76 38.35 509.83 36.61Q506.89 34.86 503.05 34.86L503.05 34.86Q499.28 34.86 496.27 36.61Q493.27 38.35 491.59 41.50Q489.92 44.64 489.92 48.69L489.92 48.69L489.92 49.46Q489.92 53.65 491.77 56.83Q493.62 60.01 496.94 61.79Q500.26 63.57 504.52 63.57L504.52 63.57Q507.87 63.57 510.77 62.38Q513.67 61.20 515.76 58.75L515.76 58.75L518.56 61.96Q516.11 64.90 512.45 66.44Q508.78 67.97 504.38 67.97ZM560.05 67.97L560.05 67.97Q554.88 67.97 552.09 65.18Q549.30 62.38 549.30 57.28L549.30 57.28L549.30 22.84L554.26 22.84L554.26 57.00Q554.26 60.22 555.90 61.96Q557.54 63.71 560.61 63.71L560.61 63.71Q563.90 63.71 566.06 61.82L566.06 61.82L567.81 65.39Q566.34 66.71 564.28 67.34Q562.22 67.97 560.05 67.97ZM565.43 35.07L542.73 35.07L542.73 30.95L565.43 30.95L565.43 35.07Z" transform="translate(0, 0)" fill="#F5F5F5"></path></g></svg></g></svg>